<?xml version="1.0" encoding="UTF-8" standalone="no"?>
<svg
   overflow="visible"
   version="1.1"
   id="svg13"
   sodipodi:docname="SmileDesignAIWhite.svg"
   width="400"
   height="300"
   inkscape:version="1.3.2 (091e20e, 2023-11-25, custom)"
   inkscape:export-filename="SmileDesignAI.png"
   inkscape:export-xdpi="96"
   inkscape:export-ydpi="96"
   xmlns:inkscape="http://www.inkscape.org/namespaces/inkscape"
   xmlns:sodipodi="http://sodipodi.sourceforge.net/DTD/sodipodi-0.dtd"
   xmlns="http://www.w3.org/2000/svg"
   xmlns:svg="http://www.w3.org/2000/svg">
  <defs
     id="defs13" />
  <sodipodi:namedview
     id="namedview13"
     pagecolor="#ffffff"
     bordercolor="#000000"
     borderopacity="0.25"
     inkscape:showpageshadow="2"
     inkscape:pageopacity="0.0"
     inkscape:pagecheckerboard="0"
     inkscape:deskcolor="#d1d1d1"
     inkscape:zoom="1.3916667"
     inkscape:cx="172.81437"
     inkscape:cy="144.43114"
     inkscape:window-width="1920"
     inkscape:window-height="1010"
     inkscape:window-x="-6"
     inkscape:window-y="-6"
     inkscape:window-maximized="1"
     inkscape:current-layer="svg13" />
  <path
     d="m 164.47188,98.945347 c -12.92413,0 -51.53822,3.982733 -60.62907,51.828353 -6.866482,36.62712 7.58742,86.49488 24.9075,111.67492 6.94562,10.1019 14.06708,16.06281 20.59948,17.25853 12.47571,1.81113 24.95145,1.81994 34.90389,0 6.5324,-1.19572 13.65384,-7.15663 20.59946,-17.25853 17.32008,-25.18004 31.774,-75.03022 24.9075,-111.67492 v 0 c -9.80298,-51.608556 -53.99115,-52.162446 -62.73032,-51.775602 -0.67697,-0.02637 -1.53858,-0.05275 -2.55844,-0.05275 z"
     fill-rule="nonzero"
     fill="#ffffff"
     id="path1"
     style="stroke-width:8.79191" />
  <path
     d="m 146.37811,247.08915 c 2.67273,3.79811 8.39627,8.83587 20.33569,8.40505 12.06252,0.42204 17.81244,-4.59815 20.49397,-8.40507 l -18.50699,0.90557 c -1.25724,0.0616 -2.54087,0.0616 -3.79811,0 v 0 z m 21.61052,14.83196 c -0.422,0 -0.84401,-0.008 -1.27483,-0.0181 -24.10742,0.46597 -28.61767,-17.33763 -28.66163,-17.52227 -0.23739,-0.97589 0.008,-2.01337 0.64181,-2.79582 0.65059,-0.77369 1.65287,-1.22208 2.62878,-1.16053 l 23.88763,1.16053 c 1.06382,0.0527 2.12764,0.0527 3.18267,0 l 23.87886,-1.16053 c 1.03743,-0.0441 1.98698,0.38684 2.62878,1.16053 0.6418,0.78245 0.88797,1.81993 0.6506,2.79582 -0.0439,0.18456 -4.53662,17.53986 -27.56267,17.53986 z"
     fill-rule="nonzero"
     fill="#000000"
     id="path2"
     style="stroke-width:8.79191" />
  <path
     d="m 164.47188,98.945347 c -12.92413,0 -51.53822,3.982733 -60.62907,51.828353 -6.866482,36.62712 7.58742,86.49488 24.9075,111.67492 6.94562,10.1019 14.06708,16.06281 20.59948,17.25853 12.47571,1.81113 24.95145,1.81994 34.90389,0 6.5324,-1.19572 13.65384,-7.15663 20.59946,-17.25853 17.32008,-25.18004 31.774,-75.03022 24.9075,-111.67492 v 0 c -9.80298,-51.608556 -53.99115,-52.162446 -62.73032,-51.775602 -0.67697,-0.02637 -1.53858,-0.05275 -2.55844,-0.05275 z m 3.33213,191.725313 c -6.44448,0 -13.21425,-0.49235 -20.01041,-1.47705 -9.39855,-1.71442 -18.41906,-8.87103 -26.9648,-21.29401 C 102.41852,241.13701 87.076627,188.06021 94.391508,148.98894 105.9265,88.307128 160.80564,89.098399 167.03032,89.397324 c 5.74992,-0.334092 60.64663,-1.090196 72.17285,59.574026 v 0.0175 c 7.32366,39.07128 -8.01824,92.14807 -26.4373,118.91068 -8.53696,12.42298 -17.55745,19.57957 -26.78897,21.25883 -5.51253,1.01109 -11.67566,1.51221 -18.17289,1.51221 z"
     fill-rule="nonzero"
     fill="#000000"
     id="path3"
     style="stroke-width:8.79191" />
  <path
     d="m 143.22182,169.16638 c -1.45947,-0.71214 -2.98925,-1.29241 -4.55421,-1.74079 -2.1804,-0.63302 -4.25529,-1.06383 -6.53242,-0.88799 -2.28588,0.18462 -4.54541,0.63302 -6.71701,1.38033 -2.03094,0.70336 -3.98273,1.66167 -5.74991,2.89254 -1.01107,0.72094 -2.09248,1.53859 -2.80463,2.56724 -0.55389,0.79128 -0.49234,2.29469 0.0791,3.08597 0.66819,0.91435 1.99578,0.73852 2.9453,0.49234 0,0 3.29697,-1.56496 7.51707,-2.35623 -0.33408,0.80886 -0.5275,1.68805 -0.5275,2.61999 0,3.73656 3.02442,6.76098 6.76098,6.76098 3.73658,0 6.76979,-3.02442 6.76979,-6.76098 0,-0.36047 -0.1582,-0.67698 -0.21101,-1.02866 5.6356,2.38262 9.81177,5.45979 11.28882,5.15207 1.77597,-0.37805 3.20026,-2.76945 0.88797,-5.09052 -2.77824,-2.78704 -5.56528,-5.33669 -9.15238,-7.08629 z"
     fill-rule="nonzero"
     fill="#000000"
     id="path4"
     style="stroke-width:8.79191" />
  <path
     d="m 216.73981,173.37771 c -0.72092,-1.02865 -1.79354,-1.8463 -2.80461,-2.56724 -1.76718,-1.23087 -3.71899,-2.18918 -5.7587,-2.89254 -2.16283,-0.74731 -4.42234,-1.1957 -6.70824,-1.38033 -2.27711,-0.17585 -4.352,0.25497 -6.5324,0.88799 -1.56496,0.44838 -3.09476,1.02865 -4.55421,1.74079 -3.5871,1.7496 -6.37414,4.29925 -9.15238,7.08629 -2.31227,2.32107 -0.888,4.71247 0.88797,5.09052 1.47705,0.30772 5.65322,-2.76945 11.28882,-5.15207 -0.0616,0.35168 -0.21101,0.66819 -0.21101,1.02866 0,3.73656 3.03323,6.76098 6.76979,6.76098 3.72777,0 6.76098,-3.02442 6.76098,-6.76098 0,-0.93194 -0.19342,-1.81113 -0.5275,-2.61999 4.2201,0.79127 7.50828,2.35623 7.50828,2.35623 0.95832,0.24618 2.2859,0.42201 2.95409,-0.49234 0.57148,-0.79128 0.63301,-2.29469 0.0791,-3.08597 z"
     fill-rule="nonzero"
     fill="#000000"
     id="path5"
     style="stroke-width:8.79191" />
  <path
     d="m 235.98531,67.901089 6.1104,-18.445441 6.22468,18.445441 z m 1.38034,-30.437614 -18.33115,49.234733 h 10.71734 l 3.46403,-10.145872 h 17.75966 l 3.45523,10.145872 h 10.72616 L 246.70267,37.463475 Z"
     fill-rule="nonzero"
     fill="#ffffff"
     id="path6"
     style="stroke-width:8.79191" />
  <path
     d="m 274.6082,37.463475 v 49.234733 h 10.1459 V 37.463475 Z"
     fill-rule="nonzero"
     fill="#ffffff"
     id="path7"
     style="stroke-width:8.79191" />
  <path
     d="m 235.98531,67.901089 h 12.33508 l -6.22468,-18.445441 z"
     fill-rule="nonzero"
     fill="#000000"
     id="path8"
     style="stroke-width:8.79191" />
  <path
     d="M 284.7541,86.698208 H 274.6082 V 37.463475 h 10.1459 z m -30.32334,0 -3.45523,-10.145872 h -17.75966 l -3.45523,10.145872 H 219.0345 l 18.33115,-49.234733 h 9.33702 L 265.1569,86.698208 Z M 295.93739,9.3293425 h -83.12756 c -6.38293,0 -11.53499,5.1696475 -11.53499,11.5262025 v 61.376369 c 13.689,5.196021 28.68801,14.779212 39.29987,32.600426 h 54.6769 c 6.69945,0 12.15043,-5.40703 12.22078,-12.10647 V 20.855545 c 0,-6.356555 -5.16965,-11.5262025 -11.535,-11.5262025 z"
     fill-rule="nonzero"
     fill="#000000"
     id="path9"
     style="stroke-width:8.79191" />
  <path
     d="M 340.67066,290.67066 H 59.329343 V 9.3293425 H 340.67066 Z"
     fill-rule="nonzero"
     fill="none"
     id="path10"
     style="stroke-width:8.79191" />
</svg>
